<?xml version="1.0" standalone="no"?>
<!DOCTYPE svg PUBLIC "-//W3C//DTD SVG 20010904//EN"
 "http://www.w3.org/TR/2001/REC-SVG-20010904/DTD/svg10.dtd">
<svg version="1.0" xmlns="http://www.w3.org/2000/svg"
 width="300.000000pt" height="64.000000pt" viewBox="0 0 300.000000 64.000000"
 preserveAspectRatio="xMidYMid meet">
<metadata>
Created by potrace 1.10, written by Peter Selinger 2001-2011
</metadata>
<g transform="translate(0.000000,64.000000) scale(0.100000,-0.100000)"
fill="#000000" stroke="none">
<path d="M1535 538 c-2 -7 0 -29 4 -48 l9 -35 1 48 c1 45 -5 60 -14 35z"/>
<path d="M1580 483 c-18 -49 -19 -53 -16 -53 11 0 44 70 35 75 -5 4 -14 -6
-19 -22z"/>
<path d="M1345 400 c-37 -32 -54 -40 -86 -40 -37 0 -39 1 -40 33 0 30 -1 31
-11 9 -8 -17 -16 -21 -32 -16 -19 6 -20 5 -6 -12 14 -18 14 -18 -2 -5 -24 19
-22 33 4 29 11 -2 23 2 25 7 3 10 -195 11 -205 0 -3 -3 2 -5 11 -5 9 0 19 -5
23 -12 4 -7 3 -8 -4 -4 -7 4 -12 2 -12 -4 0 -6 -4 -9 -9 -6 -5 3 -11 -1 -15
-9 -4 -13 7 -15 70 -14 62 1 73 3 63 15 -6 8 -8 14 -3 14 5 0 2 5 -6 10 -13 8
-13 10 2 10 11 0 20 -10 24 -25 6 -24 9 -25 94 -25 62 0 90 -4 93 -12 2 -7 11
4 20 24 23 54 55 72 106 58 40 -11 41 -12 41 -55 0 -25 -4 -45 -9 -45 -16 0
-33 30 -29 48 3 11 0 19 -8 19 -8 0 -14 -4 -14 -9 0 -5 -12 -1 -27 9 l-28 17
23 -25 c26 -30 28 -65 5 -91 -16 -18 -16 -18 3 -11 19 7 19 6 0 -21 -10 -16
-13 -25 -7 -21 7 4 23 0 36 -9 14 -9 32 -13 42 -9 16 6 15 8 -7 13 -14 3 -26
14 -28 24 -3 14 2 17 35 14 30 -2 39 -7 41 -25 2 -13 -5 -27 -20 -37 -25 -17
-99 -21 -126 -7 -17 9 -123 1 -208 -15 -29 -5 -35 -4 -29 6 6 9 4 12 -6 8 -8
-3 -22 5 -32 18 -10 13 -13 24 -8 24 6 0 14 -7 19 -16 12 -22 32 -9 32 20 0
22 6 24 83 34 l82 11 -82 -5 c-81 -4 -83 -4 -84 18 -1 13 -1 26 0 31 0 4 -14
7 -33 7 l-34 0 -1 -111 c0 -60 -3 -114 -6 -120 -4 -5 11 -9 34 -9 38 0 41 2
41 29 0 28 2 29 73 39 39 6 117 8 172 5 96 -5 101 -4 122 18 12 13 23 35 25
49 4 20 6 17 13 -17 4 -23 17 -50 29 -61 26 -24 118 -36 167 -22 39 12 159 -3
222 -26 45 -17 50 -17 42 -4 -3 6 0 10 8 10 24 0 15 31 -14 45 -31 17 -42 41
-41 96 1 48 16 77 48 89 18 7 24 17 24 40 0 28 -3 31 -22 24 -44 -13 -78 -35
-94 -59 -14 -22 -23 -25 -77 -25 -56 0 -63 3 -103 40 -42 39 -45 40 -101 36
-32 -3 -66 -8 -75 -11 -13 -5 -18 -2 -18 9 0 23 -28 33 -92 34 -53 1 -61 -2
-103 -38z m349 -11 c13 -6 31 -28 40 -48 l17 -36 69 3 c53 3 70 0 70 -10 0
-20 -13 -35 -35 -41 -15 -4 -14 -5 8 -6 17 -1 27 -7 27 -16 0 -8 7 -16 15 -16
28 -3 33 -4 40 -10 3 -4 -1 -9 -10 -12 -8 -4 -15 -1 -15 6 0 8 -4 6 -10 -3 -8
-12 -10 -12 -10 -1 0 8 -3 11 -6 8 -4 -4 1 -18 11 -33 17 -27 17 -27 -6 -21
-13 4 -48 10 -76 13 -29 4 -53 11 -53 15 0 5 6 9 13 10 10 0 10 2 0 6 -8 3
-13 23 -13 48 0 42 -1 43 -24 32 -23 -11 -23 -13 -7 -19 24 -9 25 -89 1 -95
-13 -4 -13 -3 0 6 8 6 10 11 4 11 -5 0 -19 -6 -29 -14 -12 -8 -34 -11 -64 -8
-59 6 -81 18 -81 43 0 11 -5 29 -11 40 -7 15 -7 24 2 35 8 10 8 14 0 14 -6 0
-11 9 -11 20 0 14 7 20 21 20 14 0 19 -6 17 -17 -4 -30 10 -43 42 -36 23 4 30
2 30 -11 0 -12 -10 -16 -39 -16 -22 0 -43 -5 -46 -11 -5 -6 7 -9 32 -7 47 4
54 -23 8 -33 -24 -5 -27 -7 -12 -14 11 -4 27 -1 42 9 14 9 30 14 36 10 7 -4 7
1 0 15 -8 15 -9 21 -1 21 7 0 5 9 -4 22 -21 30 -20 47 5 74 l21 23 -40 -2
c-25 -1 -37 -6 -32 -12 10 -12 -6 -55 -20 -55 -9 0 -12 12 -14 68 -1 14 22 28
71 41 1 1 13 -4 27 -10z m-108 -15 c-3 -9 -6 -18 -6 -20 0 -11 -29 -2 -34 12
-3 8 -2 12 3 9 5 -3 12 -1 16 5 10 16 28 11 21 -6z m-52 -20 c3 -9 4 -20 1
-24 -9 -15 -35 1 -35 21 0 23 25 25 34 3z m-8 -56 c8 -25 7 -25 -48 -20 -36 3
-48 8 -48 21 0 26 87 25 96 -1z"/>
<path d="M30 400 c0 -9 5 -21 11 -27 8 -8 8 -13 0 -17 -16 -10 -14 -23 4 -23
8 0 12 5 9 11 -3 6 2 2 10 -8 11 -13 13 -23 6 -30 -17 -17 -11 -29 8 -15 15
13 16 12 4 -3 -9 -11 -10 -18 -2 -23 21 -13 28 7 25 76 l-3 72 -36 2 c-28 1
-36 -2 -36 -15z"/>
<path d="M290 415 c-5 0 -1 -207 3 -212 4 -3 7 -13 7 -22 0 -14 -2 -14 -10 -1
-6 10 -8 0 -7 -33 l1 -47 37 0 37 0 -3 61 c-3 66 -11 83 -26 56 -6 -9 -14 -17
-20 -17 -5 0 -2 11 8 24 10 13 21 22 26 19 4 -2 8 22 9 54 1 32 2 72 2 88 1
27 -2 30 -31 30 -18 0 -33 0 -33 0z"/>
<path d="M683 374 c2 -31 5 -40 14 -33 14 12 21 1 18 -29 -1 -17 2 -21 13 -17
12 4 12 3 3 -9 -9 -10 -9 -16 -1 -21 17 -10 18 -7 21 75 l4 74 -37 1 -36 2 1
-43z"/>
<path d="M894 408 c-3 -4 -3 -12 0 -16 7 -12 11 -196 4 -207 -3 -6 -5 -26 -3
-45 2 -32 5 -35 37 -38 l35 -3 2 57 c2 46 -2 60 -18 76 -12 10 -21 24 -21 31
0 7 5 4 11 -5 22 -38 30 -17 27 70 l-3 87 -33 0 c-19 1 -36 -3 -38 -7z"/>
<path d="M2040 390 c0 -23 6 -33 24 -40 14 -5 30 -18 36 -30 13 -23 29 -25 55
-6 18 13 18 15 2 40 -17 25 -50 47 -94 60 -20 7 -23 4 -23 -24z"/>
<path d="M2191 300 c1 -86 4 -118 13 -113 6 3 6 0 -1 -8 -7 -7 -13 -28 -13
-46 0 -31 2 -33 33 -33 l34 0 2 65 c2 51 -1 65 -12 65 -8 0 -17 -7 -21 -15 -3
-8 -10 -15 -16 -15 -6 0 -3 11 7 24 10 13 24 21 31 19 10 -4 12 15 11 86 l-1
91 -35 0 -34 0 2 -120z"/>
<path d="M2440 411 c0 -19 22 -23 38 -7 15 15 14 16 -11 16 -15 0 -27 -4 -27
-9z"/>
<path d="M2474 391 c-29 -28 -30 -31 -28 -112 2 -46 3 -92 4 -102 0 -27 54
-77 82 -77 20 0 23 5 24 35 0 22 -4 35 -12 35 -23 0 -27 22 -26 131 0 60 -3
111 -7 113 -4 3 -21 -8 -37 -23z"/>
<path d="M2610 306 c0 -105 -2 -117 -20 -128 -29 -18 -28 -78 1 -78 63 0 89
52 89 180 0 73 -3 90 -15 90 -8 0 -15 5 -15 10 0 6 7 10 15 10 8 0 15 7 15 15
0 8 -9 15 -20 15 -11 0 -20 -5 -20 -11 0 -8 -5 -8 -15 1 -13 11 -15 -2 -15
-104z"/>
<path d="M2701 300 c1 -86 4 -118 13 -113 6 3 6 0 -1 -8 -7 -7 -13 -28 -13
-46 0 -31 2 -33 33 -33 l34 0 2 65 c2 68 -9 83 -35 48 -7 -10 -15 -15 -18 -12
-9 9 32 52 43 45 6 -4 9 29 9 84 l0 90 -34 0 -35 0 2 -120z"/>
<path d="M2780 391 c0 -28 3 -31 31 -31 17 0 40 -5 51 -11 18 -10 20 -9 16 9
-4 14 -2 19 8 15 10 -4 10 -10 1 -31 -19 -45 -28 -52 -68 -52 -35 0 -39 -3
-39 -25 0 -22 4 -25 38 -25 50 0 64 -11 67 -52 l3 -34 -54 4 -54 4 0 -31 c0
-31 0 -31 50 -30 32 2 47 6 43 13 -3 6 0 6 7 -1 17 -16 50 1 50 26 0 11 7 21
15 25 33 12 12 75 -33 101 -15 9 -20 14 -10 11 23 -7 33 35 11 52 -13 9 -14
15 -5 24 9 9 12 8 12 -4 0 -8 7 -21 15 -28 27 -22 18 38 -10 65 -18 19 -35 25
-69 25 -24 0 -51 3 -60 6 -13 5 -16 -1 -16 -25z m151 -189 c-6 -2 -11 -15 -11
-30 0 -18 -3 -23 -11 -15 -7 7 -5 21 8 46 12 24 19 30 22 19 2 -9 -2 -18 -8
-20z"/>
<path d="M120 385 c0 -24 2 -25 75 -25 73 0 75 1 75 25 0 24 -2 25 -75 25 -73
0 -75 -1 -75 -25z"/>
<path d="M443 390 c-62 -37 -98 -170 -47 -170 10 0 12 -5 8 -12 -6 -10 -4 -10
8 0 10 8 19 9 22 3 4 -5 -3 -13 -15 -16 -14 -5 -25 -2 -30 6 -5 8 -9 10 -9 4
0 -42 78 -106 127 -104 16 0 16 1 -2 9 -11 5 -14 9 -7 9 22 2 13 37 -12 49
-57 26 -53 150 4 179 34 17 38 63 7 63 -12 0 -36 -9 -54 -20z"/>
<path d="M530 385 c0 -17 8 -29 24 -36 13 -6 29 -22 35 -35 10 -24 12 -24 41
-9 16 9 30 19 30 23 -2 28 -72 82 -107 82 -18 0 -23 -6 -23 -25z"/>
<path d="M35 298 c-9 -43 0 -191 12 -195 7 -3 9 4 6 18 -4 16 -2 20 8 17 8 -3
13 -13 13 -22 -1 -9 6 -16 17 -16 16 0 18 9 18 73 0 71 -1 73 -30 86 -25 11
-30 18 -26 37 5 30 -11 32 -18 2z"/>
<path d="M686 303 c-9 -29 -4 -193 5 -199 5 -3 9 5 9 16 0 15 5 20 14 17 7 -3
19 0 26 6 7 7 5 0 -5 -15 -17 -27 -17 -28 3 -28 18 0 20 5 16 33 -2 17 -5 51
-5 75 0 23 -4 42 -8 42 -4 0 -17 9 -30 21 -17 16 -20 24 -10 35 7 9 8 14 1 14
-6 0 -13 -8 -16 -17z"/>
<path d="M1312 283 c1 -21 0 -44 -3 -52 -2 -7 2 -16 9 -18 8 -3 12 7 12 31 0
30 3 36 23 37 l22 0 -22 11 c-13 6 -23 15 -23 20 0 4 -4 8 -10 8 -5 0 -9 -17
-8 -37z"/>
<path d="M120 271 c0 -11 5 -23 11 -27 9 -5 67 -8 117 -5 6 1 12 12 12 26 0
24 -2 25 -70 25 -63 0 -70 -2 -70 -19z"/>
<path d="M770 272 c0 -29 16 -37 65 -34 40 4 45 7 45 28 0 22 -4 24 -55 24
-46 0 -55 -3 -55 -18z"/>
<path d="M530 219 c0 -24 3 -30 16 -25 9 3 22 6 30 6 8 0 14 10 14 25 0 21 -5
25 -30 25 -27 0 -30 -3 -30 -31z"/>
<path d="M603 235 c0 -8 5 -15 11 -15 5 0 2 -6 -9 -13 -10 -8 -15 -19 -11 -26
4 -6 4 -10 -1 -9 -17 4 -53 -14 -53 -27 0 -7 -3 -21 -7 -31 -5 -15 -2 -16 26
-11 17 4 43 15 56 24 29 22 60 86 52 107 -8 21 -64 22 -64 1z"/>
<path d="M2084 177 c-17 -18 -34 -42 -38 -54 -6 -19 -4 -23 16 -23 35 0 106
54 108 81 0 5 -47 30 -53 28 -1 0 -16 -15 -33 -32z"/>
<path d="M1486 128 c-23 -39 -26 -58 -7 -58 4 0 14 23 23 50 9 28 15 50 13 50
-2 0 -15 -19 -29 -42z"/>
<path d="M2282 140 c1 -8 -1 -21 -6 -28 -6 -11 5 -13 55 -11 55 2 65 5 71 23
6 20 6 20 7 -1 1 -13 6 -23 11 -23 13 0 13 16 -1 41 -9 17 -19 19 -75 17 -51
-2 -64 -6 -62 -18z"/>
<path d="M1552 138 c4 -9 9 -36 13 -61 4 -26 13 -48 22 -51 11 -5 13 -2 9 10
-4 9 -11 36 -17 60 -6 25 -16 47 -22 51 -6 4 -8 0 -5 -9z"/>
</g>
</svg>
